<svg width="20" height="20" viewBox="0 0 20 20" fill="none" xmlns="http://www.w3.org/2000/svg">
<path opacity="0.3" d="M9.61539 20C12.447 20 14.7425 19.5803 14.7425 19.0625C14.7425 18.5447 12.447 18.125 9.61539 18.125C6.78376 18.125 4.48828 18.5447 4.48828 19.0625C4.48828 19.5803 6.78376 20 9.61539 20Z" fill="black"/>
<path d="M14.1226 2.5H6.00962C4.84796 2.5 3.90625 3.47938 3.90625 4.6875V14.6875C3.90625 16.0681 4.98257 17.1875 6.3101 17.1875H14.5733C14.9883 17.1875 15.3245 16.8378 15.3245 16.4062C15.3245 15.9747 14.9883 15.625 14.5733 15.625H14.1767V13.125H14.7236C15.0556 13.125 15.3245 12.8453 15.3245 12.5V3.75C15.3245 3.05969 14.7864 2.5 14.1226 2.5Z" fill="#9C34C2"/>
<path d="M14.6274 15.625H6.61055C5.94679 15.625 5.40863 15.0653 5.40863 14.375C5.40863 13.6847 5.94679 13.125 6.61055 13.125H14.6274C14.5204 13.3334 14.3269 13.7778 14.3269 14.375C14.3269 14.6112 14.3572 15.0981 14.6274 15.625Z" fill="#FDA4AD"/>
<path d="M8.85338 6.34156L7.96276 5.3125L7.07213 6.34156C6.90176 6.53844 6.6106 6.39906 6.6106 6.12063V2.5H9.31492V6.12063C9.31492 6.39906 9.02376 6.53844 8.85338 6.34156Z" fill="#FD3C4F"/>
<path d="M14.1226 2.5H6.00962C4.84796 2.5 3.90625 3.47938 3.90625 4.6875V14.6875C3.90625 16.0681 4.98257 17.1875 6.3101 17.1875H14.5733C14.9883 17.1875 15.3245 16.8378 15.3245 16.4062C15.3245 15.9747 14.9883 15.625 14.5733 15.625H14.1767V13.125H14.7236C15.0556 13.125 15.3245 12.8453 15.3245 12.5V3.75C15.3245 3.05969 14.7864 2.5 14.1226 2.5Z" fill="#37D0EE"/>
<path d="M14.6274 15.625H6.61055C5.94679 15.625 5.40863 15.0653 5.40863 14.375C5.40863 13.6847 5.94679 13.125 6.61055 13.125H14.6274C14.5204 13.3334 14.3269 13.7778 14.3269 14.375C14.3269 14.6112 14.3572 15.0981 14.6274 15.625Z" fill="#FFE691"/>
<path opacity="0.15" d="M15.3245 16.4062C15.3245 15.9747 14.9883 15.625 14.5733 15.625H14.6274C14.3572 15.0981 14.3269 14.6112 14.3269 14.375C14.3269 13.7778 14.5204 13.3334 14.6274 13.125H14.7235C15.0556 13.125 15.3245 12.8453 15.3245 12.5V7.1875C14.4946 7.1875 13.8221 7.88687 13.8221 8.75V11.8056C13.6066 11.9478 13.4261 12.1472 13.3017 12.39C12.9895 12.9991 12.8245 13.6856 12.8245 14.375C12.8245 14.7987 12.8867 15.2212 13.0069 15.625H11.1178C10.2878 15.625 9.61536 16.3244 9.61536 17.1875H14.5733C14.9883 17.1875 15.3245 16.8378 15.3245 16.4062Z" fill="black"/>
<path opacity="0.3" d="M11.1178 2.5H6.00962C4.84796 2.5 3.90625 3.47938 3.90625 4.6875V10.625C4.73618 10.625 5.40865 9.92563 5.40865 9.0625V4.6875C5.40865 4.34281 5.67819 4.0625 6.00962 4.0625H9.61538C10.4453 4.0625 11.1178 3.36313 11.1178 2.5Z" fill="white"/>
<path d="M4.95792 5.78125C4.70913 5.78125 4.5072 5.57125 4.5072 5.3125V4.68906C4.5072 3.82656 5.18178 3.125 6.01111 3.125H6.61057C6.85937 3.125 7.06129 3.335 7.06129 3.59375C7.06129 3.8525 6.85937 4.0625 6.61057 4.0625H6.01111C5.67878 4.0625 5.40864 4.34344 5.40864 4.68906V5.3125C5.40864 5.57125 5.20672 5.78125 4.95792 5.78125Z" fill="white"/>
<path d="M9.61538 7.8125C10.4451 7.8125 11.1178 7.11294 11.1178 6.25C11.1178 5.38706 10.4451 4.6875 9.61538 4.6875C8.78563 4.6875 8.11298 5.38706 8.11298 6.25C8.11298 7.11294 8.78563 7.8125 9.61538 7.8125Z" fill="#9C34C2"/>
<path d="M11.6166 11.5625H7.61419C7.33775 11.5625 7.11389 11.3297 7.11389 11.0422V11.0391C7.11389 9.60219 8.23378 8.4375 9.61539 8.4375C10.997 8.4375 12.1169 9.60219 12.1169 11.0391V11.0422C12.1169 11.3297 11.893 11.5625 11.6166 11.5625Z" fill="#9C34C2"/>
</svg>
