<svg width="64" height="64" viewBox="0 0 64 64" fill="none" xmlns="http://www.w3.org/2000/svg">
<path d="M48.26 48.26C44.79 51.74 40.49 53.86 36 54.64C33.36 55.12 30.64 55.12 28 54.64C23.51 53.86 19.21 51.74 15.74 48.26C6.75 39.28 6.75 24.72 15.74 15.74C24.72 6.75 39.28 6.75 48.26 15.74C57.25 24.72 57.25 39.28 48.26 48.26Z" fill="#008AA9"/>
<path opacity="0.3" d="M32 64C42.4934 64 51 62.6569 51 61C51 59.3431 42.4934 58 32 58C21.5066 58 13 59.3431 13 61C13 62.6569 21.5066 64 32 64Z" fill="#010101"/>
<path d="M36 28V32H40.847C41.456 32 41.923 32.539 41.837 33.141L41.245 37.282C41.105 38.268 40.261 39 39.265 39H36V54.64C33.36 55.12 30.64 55.12 28 54.64V39H24C22.895 39 22 38.105 22 37V34C22 32.895 22.895 32 24 32H28V28C28 21.397 31.559 16.574 40.354 18.146C41.305 18.316 42 19.154 42 20.12V22.099C42 23.113 41.238 23.978 40.23 24.082C37.41 24.372 36 25.481 36 28Z" fill="white"/>
<path opacity="0.3" d="M32 14C34.577 14 36.674 12.043 36.946 9.539C35.352 9.19 33.699 9 32 9C19.297 9 9 19.297 9 32C9 33.699 9.19 35.352 9.539 36.946C12.044 36.674 14 34.577 14 32C14 22.075 22.075 14 32 14Z" fill="white"/>
<path opacity="0.15" d="M54.461 27.054C51.956 27.326 50 29.423 50 32C50 41.925 41.925 50 32 50C29.423 50 27.326 51.957 27.054 54.461C28.648 54.81 30.301 55 32 55C44.703 55 55 44.703 55 32C55 30.301 54.81 28.648 54.461 27.054Z" fill="#010101"/>
<path d="M15.045 24.927C14.816 24.927 14.585 24.874 14.367 24.764C13.628 24.389 13.334 23.486 13.709 22.747C15.728 18.77 19.048 15.506 23.056 13.555C23.799 13.191 24.698 13.502 25.061 14.247C25.424 14.992 25.114 15.89 24.369 16.252C20.945 17.919 18.109 20.708 16.384 24.105C16.119 24.627 15.592 24.927 15.045 24.927Z" fill="white"/>
</svg>
