<svg width="20" height="20" viewBox="0 0 20 20" fill="none" xmlns="http://www.w3.org/2000/svg">
<path d="M15.9375 5.3125H13.4375V2.5C13.4375 2.15469 13.7172 1.875 14.0625 1.875H15.3125C15.6578 1.875 15.9375 2.15469 15.9375 2.5V5.3125Z" fill="#FFA500"/>
<path opacity="0.3" d="M10 20C13.4734 20 16.2891 19.5803 16.2891 19.0625C16.2891 18.5447 13.4734 18.125 10 18.125C6.52665 18.125 3.71094 18.5447 3.71094 19.0625C3.71094 19.5803 6.52665 20 10 20Z" fill="black"/>
<path d="M16.3994 5.1753L11.1409 2.17529C10.4744 1.79498 9.6575 1.79186 8.98812 2.16686L3.61187 5.17779C3.11812 5.45373 2.8125 5.97529 2.8125 6.54092V15.3125C2.8125 16.1753 3.51219 16.875 4.375 16.875H15.625C16.4878 16.875 17.1875 16.1753 17.1875 15.3125V6.53248C17.1875 5.97123 16.8866 5.45342 16.3994 5.1753Z" fill="#FFA500"/>
<path d="M17.3431 7.18755C17.2153 7.18755 17.0856 7.15599 16.9656 7.09005L9.99998 3.23662L3.03436 7.09005C2.65748 7.29849 2.18154 7.16224 1.97279 6.78443C1.76404 6.40693 1.90092 5.93162 2.27842 5.72287L9.62217 1.66037C9.85717 1.53037 10.1434 1.53037 10.3784 1.66037L17.7222 5.72287C18.0997 5.93162 18.2365 6.40693 18.0278 6.78443C17.8847 7.04224 17.6181 7.18755 17.3431 7.18755Z" fill="#FD3C4F"/>
<path opacity="0.3" d="M10.1416 1.58035C9.96597 1.54785 9.78222 1.57128 9.62191 1.66003L2.27815 5.72253C2.21659 5.7566 2.16409 5.79972 2.11597 5.84628C2.4044 6.34535 2.92753 6.62785 3.46847 6.62785C3.72409 6.62785 3.98347 6.56503 4.22315 6.43222L9.45878 3.53597C10.1594 3.14878 10.4378 2.30378 10.1416 1.58035Z" fill="white"/>
<path d="M7.96 3.82031L5.47406 5.2" stroke="white" stroke-width="3" stroke-miterlimit="10" stroke-linecap="round" stroke-linejoin="round"/>
<path d="M15 16.875H10.625V10.3125C10.625 9.96719 10.9047 9.6875 11.25 9.6875H14.375C14.7203 9.6875 15 9.96719 15 10.3125V16.875Z" fill="#9C34C2"/>
<path opacity="0.15" d="M10.9384 16.875H15.625C16.4878 16.875 17.1875 16.1754 17.1875 15.3125V10.3135C16.3247 10.3135 15.625 11.0122 15.625 11.875V14.6875C15.625 15.0329 15.3453 15.3125 15 15.3125H12.5672C11.7509 15.3125 11.0222 15.9094 10.945 16.7219C10.94 16.7735 10.9384 16.8244 10.9384 16.875Z" fill="black"/>
<path d="M8.125 12.8125H5.625C5.27969 12.8125 5 12.5328 5 12.1875V10.3125C5 9.96719 5.27969 9.6875 5.625 9.6875H8.125C8.47031 9.6875 8.75 9.96719 8.75 10.3125V12.1875C8.75 12.5328 8.47031 12.8125 8.125 12.8125Z" fill="#9C34C2"/>
</svg>
