<svg width="64" height="64" viewBox="0 0 64 64" fill="none" xmlns="http://www.w3.org/2000/svg">
<path d="M54 20V44C54 46.25 53.26 48.32 52 49.99V50C50.31 52.24 47.71 53.75 44.75 53.97C44.51 53.99 44.25 54 44 54H20C14.48 54 10 49.52 10 44V20C10 19.75 10.01 19.49 10.03 19.25C10.25 16.29 11.76 13.69 14 12H14.01C15.68 10.74 17.75 10 20 10H44C49.52 10 54 14.48 54 20Z" fill="#9C34C2"/>
<path d="M54 29.36V44C54 46.25 53.26 48.32 52 49.99V50C50.31 52.24 47.71 53.75 44.75 53.97C44.51 53.99 44.25 54 44 54H20C14.48 54 10 49.52 10 44V20C10 19.75 10.01 19.49 10.03 19.25C10.25 16.29 11.76 13.69 14 12H14.01C15.68 10.74 17.75 10 20 10H34.64C42.93 14.29 49.71 21.07 54 29.36Z" fill="#BC379C"/>
<path d="M52 49.99V50C50.31 52.24 47.71 53.75 44.75 53.97C44.51 53.99 44.25 54 44 54H20C14.48 54 10 49.52 10 44V20C10 19.75 10.01 19.49 10.03 19.25C10.25 16.29 11.76 13.69 14 12H14.01C34.99 12.01 51.99 29.01 52 49.99Z" fill="#DD3975"/>
<path d="M45 50C45 51.34 44.91 52.67 44.75 53.97C44.51 53.99 44.25 54 44 54H20C14.48 54 10 49.52 10 44V20C10 19.75 10.01 19.49 10.03 19.25C11.33 19.09 12.66 19 14 19C31.12 19 45 32.88 45 50Z" fill="#FD3C4F"/>
<path d="M38 50C38 51.36 37.89 52.7 37.66 54H20C14.48 54 10 49.52 10 44V26.34C11.3 26.11 12.64 26 14 26C27.25 26 38 36.75 38 50Z" fill="#FE6D42"/>
<path d="M32 50C32 51.37 31.85 52.71 31.54 54H20C14.48 54 10 49.52 10 44V32.46C11.29 32.15 12.63 32 14 32C23.94 32 32 40.06 32 50Z" fill="#FE9D36"/>
<path d="M25 50C25 51.41 24.73 52.76 24.25 54H20C14.48 54 10 49.52 10 44V39.75C11.24 39.27 12.59 39 14 39C20.08 39 25 43.92 25 50Z" fill="#FFCE29"/>
<path opacity="0.3" d="M32 64C43.0457 64 52 62.6569 52 61C52 59.3431 43.0457 58 32 58C20.9543 58 12 59.3431 12 61C12 62.6569 20.9543 64 32 64Z" fill="#010101"/>
<path opacity="0.3" d="M31 15C33.761 15 36 12.762 36 10H20C14.477 10 10 14.477 10 20V42C12.761 42 15 39.762 15 37V20C15 17.243 17.243 15 20 15H31Z" fill="white"/>
<path opacity="0.15" d="M54 44V22C51.239 22 49 24.238 49 27V44C49 46.757 46.757 49 44 49H33C30.239 49 28 51.238 28 54H44C49.523 54 54 49.523 54 44Z" fill="#010101"/>
<path d="M14 21.5C13.171 21.5 12.5 20.829 12.5 20C12.5 15.864 15.864 12.5 20 12.5C20.829 12.5 21.5 13.171 21.5 14C21.5 14.829 20.829 15.5 20 15.5C17.519 15.5 15.5 17.519 15.5 20C15.5 20.829 14.829 21.5 14 21.5Z" fill="white"/>
<path d="M39.5 48H24.5C19.813 48 16 44.187 16 39.5V24.5C16 19.813 19.813 16 24.5 16H39.5C44.187 16 48 19.813 48 24.5V39.5C48 44.187 44.187 48 39.5 48ZM24.5 19C21.467 19 19 21.467 19 24.5V39.5C19 42.533 21.467 45 24.5 45H39.5C42.533 45 45 42.533 45 39.5V24.5C45 21.467 42.533 19 39.5 19H24.5Z" fill="white"/>
<path d="M32 40C27.589 40 24 36.411 24 32C24 27.589 27.589 24 32 24C36.411 24 40 27.589 40 32C40 36.411 36.411 40 32 40ZM32 27C29.243 27 27 29.243 27 32C27 34.757 29.243 37 32 37C34.757 37 37 34.757 37 32C37 29.243 34.757 27 32 27Z" fill="white"/>
<path d="M40.5 25.5C41.6046 25.5 42.5 24.6046 42.5 23.5C42.5 22.3954 41.6046 21.5 40.5 21.5C39.3954 21.5 38.5 22.3954 38.5 23.5C38.5 24.6046 39.3954 25.5 40.5 25.5Z" fill="white"/>
</svg>
