<svg width="98" height="98" viewBox="0 0 98 98" fill="none" xmlns="http://www.w3.org/2000/svg">
<circle cx="49" cy="49" r="49" fill="#9F9F9F"/>
<circle cx="48.5" cy="49.5" r="42.5" fill="#262626"/>
<path d="M49 72C61.7025 72 72 61.7025 72 49C72 36.2975 61.7025 26 49 26C36.2975 26 26 36.2975 26 49C26 61.7025 36.2975 72 49 72Z" fill="#98C900"/>
<path opacity="0.3" d="M49 81C59.4934 81 68 79.6569 68 78C68 76.3431 59.4934 75 49 75C38.5066 75 30 76.3431 30 78C30 79.6569 38.5066 81 49 81Z" fill="black"/>
<path opacity="0.3" d="M49 31C51.577 31 53.674 29.043 53.946 26.539C52.352 26.19 50.699 26 49 26C36.297 26 26 36.297 26 49C26 50.699 26.19 52.352 26.539 53.946C29.044 53.674 31 51.577 31 49C31 39.075 39.075 31 49 31Z" fill="white"/>
<path d="M32.047 40.427C33.925 36.728 36.979 33.722 40.713 31.905" stroke="white" stroke-width="3" stroke-miterlimit="10" stroke-linecap="round" stroke-linejoin="round"/>
<path opacity="0.15" d="M71.461 44.054C68.956 44.326 67 46.423 67 49C67 58.925 58.925 67 49 67C46.423 67 44.326 68.957 44.054 71.461C45.648 71.81 47.301 72 49 72C61.703 72 72 61.703 72 49C72 47.301 71.81 45.648 71.461 44.054Z" fill="black"/>
<path d="M49.1142 61.9995C47.4573 62.0141 46.1025 60.6829 46.088 59.026L45.9123 39.0267C45.8978 37.3698 47.2289 36.0151 48.8859 36.0005C50.5428 35.986 51.8975 37.3171 51.9121 38.974L52.0878 58.9733C52.1023 60.6302 50.7712 61.9849 49.1142 61.9995Z" fill="#EDFF9C"/>
<path d="M59 52H39C37.343 52 36 50.657 36 49C36 47.343 37.343 46 39 46H59C60.657 46 62 47.343 62 49C62 50.657 60.657 52 59 52Z" fill="#EDFF9C"/>
</svg>
