<svg width="98" height="98" viewBox="0 0 98 98" fill="none" xmlns="http://www.w3.org/2000/svg">
<circle cx="49" cy="49" r="49" fill="#9F9F9F"/>
<circle cx="48.5" cy="49.5" r="42.5" fill="#262626"/>
<path d="M49 72C61.7025 72 72 61.7025 72 49C72 36.2975 61.7025 26 49 26C36.2975 26 26 36.2975 26 49C26 61.7025 36.2975 72 49 72Z" fill="#9C34C2"/>
<path opacity="0.3" d="M49 81C59.4934 81 68 79.6569 68 78C68 76.3431 59.4934 75 49 75C38.5066 75 30 76.3431 30 78C30 79.6569 38.5066 81 49 81Z" fill="black"/>
<path opacity="0.3" d="M49 31C51.577 31 53.674 29.043 53.946 26.539C52.352 26.19 50.699 26 49 26C36.297 26 26 36.297 26 49C26 50.699 26.19 52.352 26.539 53.946C29.044 53.674 31 51.577 31 49C31 39.075 39.075 31 49 31Z" fill="white"/>
<path d="M32.047 40.427C33.925 36.728 36.979 33.722 40.713 31.905" stroke="white" stroke-width="3" stroke-miterlimit="10" stroke-linecap="round" stroke-linejoin="round"/>
<path opacity="0.15" d="M71.461 44.054C68.956 44.326 67 46.423 67 49C67 58.925 58.925 67 49 67C46.423 67 44.326 68.957 44.054 71.461C45.648 71.81 47.301 72 49 72C61.703 72 72 61.703 72 49C72 47.301 71.81 45.648 71.461 44.054Z" fill="black"/>
<path d="M39.701 58.0846C38.5431 56.8993 38.5652 55.0001 39.7505 53.8422L54.0568 39.8662C55.2421 38.7083 57.1412 38.7304 58.2992 39.9157C59.4571 41.101 59.4349 43.0002 58.2496 44.1581L43.9433 58.1341C42.758 59.292 40.8589 59.2698 39.701 58.0846Z" fill="#FCC419"/>
<path d="M53.6074 58.3686L39.9964 43.7146C38.8687 42.5006 38.9387 40.6026 40.1528 39.4749C41.3669 38.3472 43.2649 38.4172 44.3925 39.6313L58.0036 54.2853C59.1313 55.4994 59.0612 57.3974 57.8472 58.5251C56.6331 59.6527 54.7351 59.5827 53.6074 58.3686Z" fill="#FCC419"/>
</svg>
