<svg width="20" height="20" viewBox="0 0 20 20" fill="none" xmlns="http://www.w3.org/2000/svg">
<path opacity="0.3" d="M9.61539 20C12.9344 20 15.625 19.5803 15.625 19.0625C15.625 18.5447 12.9344 18.125 9.61539 18.125C6.29637 18.125 3.60577 18.5447 3.60577 19.0625C3.60577 19.5803 6.29637 20 9.61539 20Z" fill="black"/>
<path d="M15.799 5.77846L14.734 6.88596C14.4408 7.19128 14.0565 7.34378 13.6718 7.34378C13.3041 7.34378 12.9366 7.2044 12.6487 6.92534C12.0222 6.31846 12.055 5.25346 12.6604 4.62378L13.6746 3.56909C14.0544 3.17409 13.7836 2.5044 13.2464 2.50034C12.9534 2.49815 12.6517 2.53409 12.3434 2.6144C10.9375 2.98128 9.85033 4.22065 9.65141 5.71409C9.5811 6.24221 9.62197 6.75096 9.74456 7.22471C9.72804 7.24065 9.70911 7.2519 9.69288 7.26846L3.53302 13.6747C2.829 14.4069 2.829 15.5941 3.53302 16.326C3.88489 16.6919 4.34613 16.875 4.80766 16.875C5.2692 16.875 5.73044 16.6919 6.0826 16.3257L12.2425 9.9194C12.2584 9.90284 12.2692 9.88315 12.2845 9.86596C12.7401 9.99346 13.2289 10.036 13.7371 9.96284C15.173 9.75596 16.3648 8.62534 16.7175 7.16315C16.7947 6.84253 16.8293 6.52846 16.8272 6.22409C16.823 5.66534 16.1791 5.38346 15.799 5.77846ZM4.80766 15.625C4.47563 15.625 4.2067 15.345 4.2067 15C4.2067 14.6547 4.47563 14.375 4.80766 14.375C5.1397 14.375 5.40863 14.6547 5.40863 15C5.40863 15.345 5.1397 15.625 4.80766 15.625Z" fill="#A7B3C7"/>
<path opacity="0.15" d="M6.08266 16.3256L12.2425 9.91932C12.2584 9.90276 12.2693 9.88307 12.2846 9.86588C12.7401 9.99338 13.229 10.0359 13.7371 9.96276C15.1731 9.75588 16.3648 8.62526 16.7176 7.16307C16.7948 6.84245 16.8294 6.52838 16.8273 6.22401C16.8233 5.66526 16.1794 5.3837 15.7996 5.7787L15.3227 6.27463C15.3209 6.44276 15.3014 6.61307 15.2605 6.78276C15.0538 7.63963 14.3588 8.29588 13.531 8.41526C13.2467 8.45557 12.9592 8.4362 12.6746 8.35682C12.1361 8.20651 11.5628 8.37807 11.1839 8.80276C11.1641 8.82495 11.1449 8.84807 11.1262 8.8712L5.38705 14.8403C5.39937 14.8915 5.40868 14.9443 5.40868 14.9999C5.40868 15.3449 5.13975 15.6249 4.80772 15.6249C4.78819 15.6249 4.76956 15.6209 4.75033 15.619C4.56013 16.0071 4.53338 16.4571 4.67551 16.8618C4.71968 16.8653 4.76325 16.8749 4.80772 16.8749C5.26926 16.8749 5.7305 16.6918 6.08266 16.3256Z" fill="black"/>
<path opacity="0.3" d="M9.69264 8.83064C10.0373 8.83064 10.3816 8.70783 10.6605 8.46314C10.7004 8.43064 10.7392 8.39595 10.7768 8.35908C11.1776 7.96439 11.3381 7.37283 11.1947 6.81845C11.1184 6.52345 11.0998 6.22408 11.1392 5.92845C11.2539 5.06751 11.8843 4.34501 12.708 4.13001C12.872 4.0872 13.0367 4.06595 13.1983 4.06408L13.6743 3.56908C14.0526 3.17564 13.7861 2.5047 13.2512 2.50001C12.9733 2.49751 12.6875 2.52939 12.3958 2.60095C11.0078 2.94126 9.94985 4.06314 9.68212 5.5197C9.57214 6.11751 9.607 6.69251 9.74432 7.22408C9.72779 7.24001 9.70886 7.25126 9.69264 7.26783L8.63074 8.3722C8.63074 8.37251 8.63074 8.37283 8.63074 8.37314C8.92431 8.67845 9.30862 8.83064 9.69264 8.83064ZM10.7581 8.3697C10.7578 8.37033 10.7572 8.37095 10.7566 8.37126C10.7569 8.37095 10.7575 8.37033 10.7581 8.3697ZM10.7563 8.37158C10.756 8.3722 10.7554 8.37251 10.7551 8.37314C10.7554 8.37251 10.7557 8.3722 10.7563 8.37158ZM10.7548 8.37345C10.7545 8.37376 10.7539 8.37439 10.7536 8.3747C10.7539 8.37439 10.7542 8.37376 10.7548 8.37345Z" fill="white"/>
<path d="M10.6671 6.40625C10.6671 6.40625 10.6671 5.15625 11.268 4.53125" stroke="white" stroke-width="3" stroke-miterlimit="10" stroke-linecap="round" stroke-linejoin="round"/>
</svg>
