<svg width="20" height="20" viewBox="0 0 20 20" fill="none" xmlns="http://www.w3.org/2000/svg">
<path opacity="0.3" d="M9.61539 20C12.7685 20 15.3245 19.5803 15.3245 19.0625C15.3245 18.5447 12.7685 18.125 9.61539 18.125C6.46232 18.125 3.90625 18.5447 3.90625 19.0625C3.90625 19.5803 6.46232 20 9.61539 20Z" fill="black"/>
<path d="M9.61689 2.49561C5.63462 2.49561 2.40625 5.47967 2.40625 9.16123C2.40625 10.8656 3.10397 12.5231 4.24219 13.7019L3.33413 16.5344C3.13071 17.169 3.78546 17.7315 4.34645 17.4034L7.40715 15.6131C8.10397 15.8203 8.84555 15.935 9.61659 15.935C13.5989 15.935 16.8272 12.8431 16.8272 9.16186C16.8272 5.47998 13.5992 2.49561 9.61689 2.49561Z" fill="#4CCFF1"/>
<path opacity="0.3" d="M9.61689 4.05817C10.3996 4.05817 11.0352 3.43349 11.1055 2.63849C10.625 2.54536 10.1271 2.49536 9.61689 2.49536C5.63462 2.49536 2.40625 5.47942 2.40625 9.16099C2.40625 9.68411 2.47927 10.201 2.60337 10.7029C3.33894 10.6016 3.90865 9.9538 3.90865 9.16099C3.90865 6.34724 6.46965 4.05817 9.61689 4.05817Z" fill="white"/>
<path opacity="0.15" d="M9.61658 15.9346C13.5989 15.9346 16.8272 12.8428 16.8272 9.1615C16.8272 8.63057 16.7581 8.11463 16.6313 7.61963C15.8951 7.72057 15.3248 8.36838 15.3248 9.1615C15.3248 11.9862 12.7106 14.3724 9.61658 14.3721C8.83563 14.3721 8.20162 14.9937 8.1286 15.7859C8.60907 15.8803 9.10546 15.9346 9.61658 15.9346Z" fill="black"/>
<path d="M4.51081 6.51688C4.41405 6.51688 4.3167 6.48469 4.23467 6.41844C4.03815 6.25938 4.0027 5.965 4.15534 5.76094C4.39332 5.44219 4.66676 5.1425 4.96814 4.86969C5.26832 4.59844 5.59765 4.3525 5.94741 4.13844C6.29807 3.92344 6.67427 3.73844 7.0658 3.58813C7.29897 3.49813 7.55859 3.6225 7.64482 3.86563C7.73106 4.10844 7.61147 4.37813 7.378 4.46782C7.03695 4.59875 6.70943 4.76 6.40474 4.94625C6.10246 5.13125 5.8182 5.34344 5.55979 5.57719C5.30258 5.81 5.0694 6.06532 4.86718 6.33594C4.77824 6.45438 4.64512 6.51688 4.51081 6.51688Z" fill="white"/>
</svg>
