<svg width="64" height="64" viewBox="0 0 64 64" fill="none" xmlns="http://www.w3.org/2000/svg">
<path d="M55.742 16.771C54.384 17.236 52.915 17.498 51.368 17.673C52.893 16.914 53.948 15.796 54.934 14.427C55.498 13.644 54.624 12.62 53.755 13.041C52.21 13.789 50.717 14.345 48.837 14.665C46.998 13.012 44.574 12 41.905 12C38.028 12 34.65 14.123 32.877 17.264C32.019 18.773 31.528 20.519 31.528 22.377C31.528 23.016 31.605 23.634 31.716 24.24C23.377 23.992 16.388 19.686 12.411 14.27C11.969 13.669 11.047 13.797 10.773 14.491C10.351 15.558 9.83 16.716 9.83 18.603C9.83 18.716 9.83 18.82 9.839 18.924C9.877 20.15 10.15 21.32 10.622 22.377C11.509 24.424 13.113 26.094 15.122 27.075C14.933 27.084 14.745 27.094 14.547 27.094C12.66 27.094 12.039 26.448 11.016 26.182C10.372 26.014 9.742 26.552 9.84 27.21C10.149 29.305 11.24 31.511 12.698 32.915C14.264 34.443 16.358 35.424 18.689 35.566C17.445 36.179 16.039 36.528 14.548 36.528H13.605C12.892 36.528 12.447 37.283 12.769 37.919C14.351 41.048 18.015 43.136 21.941 43.123C18.158 45.508 13.691 46.906 8.888 46.906H7.943C7.423 46.905 7 47.328 7 47.848C7 48.28 7.296 48.629 7.692 48.74L7.69 48.756C7.69 48.756 14.794 51.621 23.037 51.621C39.009 51.621 51.99 38.819 52.273 22.914C52.282 22.735 52.282 22.556 52.282 22.376C52.282 22.196 52.282 22.018 52.273 21.838C52.26 21.579 52.228 21.324 52.196 21.069C53.942 20.513 55.497 19.599 56.735 18.309C57.417 17.599 56.674 16.452 55.742 16.771Z" fill="#37D0EE"/>
<path opacity="0.3" d="M27 64C37.4934 64 46 62.6569 46 61C46 59.3431 37.4934 58 27 58C16.5066 58 8 59.3431 8 61C8 62.6569 16.5066 64 27 64Z" fill="#010101"/>
<path opacity="0.15" d="M53.18 25.06C52.01 40.14 39.41 52 24.04 52C22.31 52 20.63 51.87 19.06 51.67C19.22 49.06 21.39 47 24.04 47C35.14 47 44.8 39.5 47.53 28.77C48.17 26.23 50.64 24.65 53.18 25.06Z" fill="#010101"/>
<path opacity="0.3" d="M47.76 13.59C47.22 15.77 45.25 17.38 42.91 17.38C40.97 17.38 39.18 18.42 38.23 20.1C37.76 20.92 37.53 21.81 37.53 22.75C37.53 23.02 37.56 23.32 37.64 23.72C37.91 25.21 37.49 26.73 36.51 27.88C35.56 28.98 34.17 29.62 32.72 29.62H32.57C25.94 29.42 19.46 27 14.33 22.81C12.2 21.06 11.88 17.91 13.63 15.77C13.74 15.63 13.86 15.5 13.98 15.38C18.03 20.44 24.76 24.38 32.72 24.62C32.61 24.01 32.53 23.39 32.53 22.75C32.53 20.9 33.02 19.15 33.88 17.64C35.65 14.5 39.03 12.38 42.91 12.38C44.66 12.38 46.32 12.82 47.76 13.59Z" fill="white"/>
<path d="M37.53 24.25C36.701 24.25 36.03 23.579 36.03 22.75C36.03 21.536 36.332 20.394 36.928 19.354C38.138 17.214 40.432 15.88 42.909 15.88C43.738 15.88 44.409 16.551 44.409 17.38C44.409 18.209 43.738 18.88 42.909 18.88C41.511 18.88 40.218 19.63 39.534 20.838C39.193 21.434 39.029 22.056 39.029 22.75C39.03 23.579 38.359 24.25 37.53 24.25Z" fill="white"/>
</svg>
